# xmcd
#
# Track frame offsets: 
#        150
#        18341
#        32801
#        49433
#        66278
#        80317
#        96046
#        109117
#        126337
#        146064
#        162929
#        180100
#        196149
#        211487
#        227826
#        246145
#        260486
#        276427
#        290729
#
# Disc length: 4077 seconds
#
# Revision: 0
# Processed by: cddbd v1.5.2PL0 Copyright (c) Steve Scherf et al.
# Submitted via: ExactAudioCopy v1.0b3
#
DISCID=1a0feb13
DTITLE=Various Artist - Dance Charts Now! Vol. 2 - CD 2
DYEAR=1900
DGENRE=
TTITLE0=D.O.N.S. Feat. Gloria Gaynor - Supernatural Love (Sunloverz Rm
TTITLE0=x)
TTITLE1=Luke Francis - The Bomb (These Sounds Falls Into My Mind) (Phi
TTITLE1=l D. Radio)
TTITLE2=Shaun Baker - Power (Sebastian Wolter Radio Edit)
TTITLE3=Krysztof Chochlow - Reserve Midnight (Sandra Flyn and Marc Van L
TTITLE3=inden Rmx Cut)
TTITLE4=Out Of Office - Hands Up (Radio Edit)
TTITLE5=Randy Jones - If I Can´t Have You (Disco Deejays Radio Mix)
TTITLE6=Jeckyll and Hyde - Freefall (Real Booty Babes Rmx Edit)
TTITLE7=Andrew Spencer and The Vamprockerz - Zombie (Ray Knox Rmx Edit)
TTITLE8=4 Elements - I Want You To Hold Me (Single Edit)
TTITLE9=Jerry Ropero - The Storm (Radio Vocal 2007 Version)
TTITLE10=Maziano - Take Control Harder (Manox Rmx Edit)
TTITLE11=Naksi Vs. Brunner Feat. Marcie - Somewhere Over The Rainbow (
TTITLE11=DJ Klubbingman Edit)
TTITLE12=Kris P. - Banghra (Short Vocal Mix)
TTITLE13=Clubworxx - Children (Radio Mix)
TTITLE14=Stephanie O' Hara - Come Back And Stay (Radio Mix)
TTITLE15=Aycan - Divided (Radio Edit)
TTITLE16=60's Sleepers - Oh Carol (Original Radio Edit)
TTITLE17=BassBusters - No One (Club Edit)
TTITLE18=Warp Brothers - Dominator (Warped Jump Mix Edit)
EXTD=
EXTT0=
EXTT1=
EXTT2=
EXTT3=
EXTT4=
EXTT5=
EXTT6=
EXTT7=
EXTT8=
EXTT9=
EXTT10=
EXTT11=
EXTT12=
EXTT13=
EXTT14=
EXTT15=
EXTT16=
EXTT17=
EXTT18=
PLAYORDER=
